<?xml version="1.0" encoding="UTF-8"?>
<svg xmlns="http://www.w3.org/2000/svg" xmlns:xlink="http://www.w3.org/1999/xlink" width="160px" height="27px" viewBox="0 0 160 27">
  <!-- Generator: Sketch 57.1 (83088) - https://sketch.com -->
  <title>dunlop</title>
  <desc>Created with Sketch.</desc>
  <g id="Page-1" stroke="none" stroke-width="1" fill="none" fill-rule="evenodd">
    <g id="dunlop">
      <path d="M130.7967,5.91210719 C137.859616,5.91210719 138.040445,7.91136196 135.69496,13.3086434 C133.274329,18.880143 129.502049,19.6481404 125.847742,19.6756183 L125.632929,19.6764111 L120.031228,19.676668 C118.344528,19.6909654 111.858546,20.2643789 115.987246,11.8215652 C116.696357,10.2108582 117.992454,6.02190968 124.740791,5.91398331 L125.101028,5.91210719 L130.7967,5.91210719 Z M64.7067893,6.10196575 L63.5680077,8.6946389 L61.2128203,8.6946389 L58.782655,14.2994401 C58.4412851,15.0244349 57.9093832,17.0448832 60.6438705,17.0448832 C63.3774757,17.0448832 63.9093775,15.7485466 64.2507474,14.9476084 L66.9852346,8.6946389 L64.5929993,8.6946389 L65.731781,6.10196575 L73.8205707,6.10196575 L72.680907,8.6946389 L70.2886717,8.6946389 L67.0231646,16.243945 C66.3774728,17.6930515 64.7447193,19.6755281 60.1119686,19.6755281 L55.327498,19.6755281 C53.6947445,19.6755281 49.8594056,18.8745899 51.4162992,15.3290917 L54.3016243,8.6946389 L51.9102711,8.6946389 L53.0490527,6.10196575 L64.7067893,6.10196575 Z M43.8514725,6.10284881 C50.9143884,6.10284881 50.6100665,9.11497691 48.787663,13.3086434 C46.3605327,18.8931043 44.9989582,19.4306616 39.0732796,19.4472796 L25.2825399,19.4476978 L26.4213215,16.8550246 L28.7756268,16.8550246 L32.3454558,8.69552196 L29.9523384,8.69552196 L31.0920021,6.10284881 L43.8514725,6.10284881 Z M83.8579031,6.10284881 L87.9205399,14.2988578 L90.3889171,8.69552196 L87.9966818,8.69552196 L89.1354635,6.10284881 L97.2242532,6.10284881 L96.0845895,8.69552196 L93.7302841,8.69552196 L88.9837435,19.4476978 L83.3639312,19.4476978 L79.2251524,11.2881951 L76.7949871,16.8550246 L79.1872224,16.8550246 L78.0096287,19.4476978 L69.9217211,19.4476978 L71.0605027,16.8550246 L73.452738,16.8550246 L77.022567,8.69552196 L74.6682617,8.69552196 L75.7691134,6.10284881 L83.8579031,6.10284881 Z M111.193073,6.10284881 L110.053409,8.69552196 L107.623244,8.69552196 L104.130157,16.8550246 L107.888753,16.8550246 L111.648232,12.8891884 L114.002538,12.8891884 L111.117213,19.4476978 L93.7249916,19.4476978 L94.8267253,16.8550246 L97.2189606,16.8550246 L100.787908,8.69552196 L98.3956722,8.69552196 L99.5732659,6.10284881 L111.193073,6.10284881 Z M157.996027,6.10284881 C158.995596,6.10284881 160.715362,6.75425326 159.679315,9.43265773 L159.591733,9.648347 L159.059831,10.9067119 C158.614647,11.9118479 157.880301,14.11614 153.99545,14.2205365 L153.705528,14.2243798 L146.415033,14.2243798 L145.313299,16.8550246 L147.667604,16.8550246 L146.528823,19.4476978 L134.909016,19.4476978 L136.009868,16.8550246 L138.402103,16.8550246 L141.934002,8.69552196 L139.579697,8.69552196 L140.718478,6.10284881 L157.996027,6.10284881 Z M128.138955,8.46680863 L126.202761,8.46680863 C124.987238,8.46680863 123.810526,9.61037529 123.430344,10.4872569 L123.430344,10.4872569 L121.835521,14.185525 C120.962249,16.2068564 122.215702,17.0457663 123.126904,17.0457663 L123.126904,17.0457663 L124.683798,17.0457663 C126.847571,17.0457663 127.607935,15.711458 128.025165,14.7197782 L128.025165,14.7197782 L129.430338,11.440965 C129.923428,10.3353701 130.4174,8.46680863 128.138955,8.46680863 L128.138955,8.46680863 Z M41.2254826,8.69552196 L39.2504772,8.69552196 L35.6815303,16.8550246 L38.3772054,16.8550246 C40.4645517,16.8550246 40.6801761,15.7916827 41.0678105,14.8265518 L41.1116927,14.7197782 L42.5168663,11.440965 C43.0108382,10.3353701 43.503928,8.69552196 41.2254826,8.69552196 Z M151.229494,8.71141709 L148.837259,8.71141709 L147.583805,11.6467187 L150.545872,11.6467187 C151.685536,11.6467187 152.026906,11.2272638 152.444136,10.236467 C152.862248,9.24478718 152.292416,8.74938881 151.229494,8.71141709 Z" fill="#000000"></path>
      <path d="M0.45074935,0 L22.7403488,12.9633657 L0.658923218,26.3841581 L7.70243312,20.0119751 C7.46603229,20.0367008 7.22522099,20.0490637 6.98176342,20.0490637 C3.12613639,20.0490637 0,16.9106576 0,13.0393092 C0,9.1679607 3.12613639,6.02955458 6.98176342,6.02955458 C7.07085478,6.02955458 7.15994614,6.03132071 7.2481554,6.03485296 L7.2481554,6.03485296 L0.45074935,0 Z M8.281968,6.51612233 C4.69361505,6.51612233 1.78447345,9.43729493 1.78447345,13.0401922 C1.78447345,16.6439726 4.69361505,19.5651452 8.281968,19.5651452 C11.871203,19.5651452 14.7803446,16.6439726 14.7803446,13.0401922 C14.7803446,9.43729493 11.871203,6.51612233 8.281968,6.51612233 Z" id="Fill-3" fill="#000000"></path>
      <path d="M1.78447345,13.0401922 C1.78447345,9.43729493 4.69361505,6.51612233 8.281968,6.51612233 C11.871203,6.51612233 14.7803446,9.43729493 14.7803446,13.0401922 C14.7803446,16.6439726 11.871203,19.5651452 8.281968,19.5651452 C4.69361505,19.5651452 1.78447345,16.6439726 1.78447345,13.0401922 L1.78447345,13.0401922 Z" id="Path" fill="#FFFFFF"></path>
      <path d="M10.5462999,10.3751079 C13.7244797,10.3751079 14.2052202,11.9337142 13.9070729,13.3890021 C13.4827863,15.4589019 11.547475,15.92251 9.92707082,15.92251 L9.92707082,15.92251 L3.13936778,15.92251 L3.6906757,14.3365288 L4.40781703,14.3365288 L5.14083603,11.9610892 L4.026753,11.9610892 L4.50131885,10.3751079 Z M9.89707967,11.9610892 L8.47691048,11.9610892 L7.70596149,14.3365288 L8.84297893,14.3365288 C9.5327754,14.3365288 10.2657944,13.8976465 10.4536801,13.4516996 C10.728893,12.6816686 10.4819071,12.0105407 9.89707967,11.9610892 L9.89707967,11.9610892 Z" id="Combined-Shape" fill="#B21314"></path>
    </g>
  </g>
</svg>
